<?xml version="1.0" standalone="no"?>
<!DOCTYPE svg PUBLIC "-//W3C//DTD SVG 20010904//EN"
 "http://www.w3.org/TR/2001/REC-SVG-20010904/DTD/svg10.dtd">
<svg version="1.0" xmlns="http://www.w3.org/2000/svg"
 width="500.000000pt" height="500.000000pt" viewBox="0 0 500.000000 500.000000"
 preserveAspectRatio="xMidYMid meet">
<metadata>
Created by potrace 1.11, written by Peter Selinger 2001-2013
</metadata>
<g transform="translate(0.000000,500.000000) scale(0.100000,-0.100000)"
fill="#000000" stroke="none">
<path d="M530 4582 c-191 -20 -354 -104 -446 -230 -62 -83 -85 -160 -81 -263
3 -71 10 -97 37 -153 65 -137 209 -244 381 -286 83 -19 117 -20 1966 -20
l1883 0 1 42 c0 53 0 877 0 898 -1 13 -213 15 -1858 15 -1022 0 -1869 -1
-1883 -3z"/>
<path d="M525 3509 c-220 -18 -407 -137 -489 -309 -28 -59 -31 -74 -31 -165 0
-93 2 -105 32 -166 82 -166 247 -276 458 -305 59 -8 3062 -10 3070 -2 5 5 9
607 6 878 l-1 75 -1482 0 c-816 0 -1519 -3 -1563 -6z"/>
<path d="M567 2443 c-1 -1 -29 -4 -62 -7 -201 -19 -386 -138 -466 -301 -32
-65 -34 -76 -34 -170 0 -92 3 -106 32 -167 54 -114 158 -208 285 -259 131 -53
36 -50 1983 -50 996 0 1849 0 1896 0 l87 1 -1 475 c0 341 -3 475 -11 476 -22
2 -3708 4 -3709 2z"/>
<path d="M470 1363 c-52 -8 -157 -46 -215 -76 -86 -46 -175 -137 -216 -222
-31 -65 -34 -77 -34 -171 0 -96 2 -103 37 -175 77 -154 229 -259 422 -292 57
-9 573 -12 2302 -12 l2229 0 3 478 2 477 -2252 -1 c-1239 -1 -2264 -4 -2278
-6z"/>
</g>
</svg>
